<svg id="svg" xmlns="http://www.w3.org/2000/svg" xmlns:xlink="http://www.w3.org/1999/xlink" width="50" height="43.567532884183515" viewBox="0, 0, 500,435.67532884183515"><g id="svgg"><path id="path0" d="M196.022 0.163 C 182.185 0.717,173.031 1.919,169.114 3.695 C 167.880 4.255,167.695 4.230,166.025 3.276 C 162.066 1.014,156.057 0.815,146.688 2.638 C 145.545 2.860,132.194 4.530,117.020 6.348 L 89.429 9.655 86.461 9.566 C 81.785 9.427,78.016 8.817,73.823 7.524 C 67.099 5.449,65.995 5.271,63.873 5.915 C 61.494 6.638,58.695 9.138,55.486 13.406 C 51.405 18.834,49.859 22.350,46.996 32.724 C 44.417 42.064,41.751 49.394,37.768 58.090 C 34.499 65.227,33.739 67.707,32.000 76.917 C 25.007 113.951,24.021 154.805,29.119 196.310 C 29.425 198.806,29.676 200.905,29.676 200.974 C 29.676 201.042,31.123 202.248,32.892 203.653 L 36.109 206.208 36.014 209.095 C 35.961 210.683,35.813 218.912,35.684 227.382 C 35.323 251.068,35.337 250.934,31.259 270.533 C 27.608 288.085,26.377 294.228,24.776 302.902 C 21.171 322.436,20.430 325.283,15.884 337.103 C 11.795 347.735,9.446 354.275,7.648 360.042 C 6.518 363.667,5.434 367.383,5.496 367.421 C 5.517 367.434,5.751 367.587,6.015 367.761 C 6.280 367.935,7.489 368.326,8.701 368.629 C 10.446 369.066,10.889 369.232,10.829 369.424 C 10.787 369.557,10.253 371.399,9.642 373.516 C 9.031 375.634,7.726 380.073,6.743 383.381 C 2.530 397.552,1.287 403.479,0.384 413.699 C 0.078 417.166,-0.145 435.675,0.120 435.675 C 0.438 435.675,3.467 434.494,3.867 434.214 C 4.153 434.014,4.425 433.525,4.724 432.673 C 5.893 429.344,10.652 421.494,13.452 418.276 C 15.506 415.916,16.918 414.927,21.826 412.409 C 29.225 408.614,31.327 406.820,37.121 399.355 C 38.564 397.495,40.915 394.566,42.344 392.846 C 47.268 386.920,49.399 383.892,51.148 380.330 C 52.130 378.331,52.283 378.110,53.096 377.523 C 57.477 374.355,73.108 356.709,101.617 322.746 C 128.120 291.173,125.400 293.877,130.662 293.874 L 132.435 293.872 132.629 292.933 C 133.726 287.621,136.029 283.797,142.320 276.838 C 143.780 275.223,145.555 273.207,146.265 272.359 C 150.468 267.337,155.874 265.426,162.336 266.681 C 164.500 267.101,170.802 268.609,172.411 269.092 L 173.263 269.348 172.877 269.652 C 172.664 269.819,172.330 270.394,172.135 270.930 C 171.773 271.923,171.483 272.273,169.588 274.000 C 168.856 274.667,168.453 275.206,168.031 276.085 L 167.462 277.270 167.906 277.316 C 168.421 277.370,187.538 275.942,187.638 275.842 C 187.907 275.573,186.828 274.367,186.294 274.341 C 185.725 274.314,178.338 272.238,177.763 271.944 C 175.851 270.968,183.595 270.703,211.501 270.786 C 253.320 270.912,257.695 270.879,278.072 270.288 C 324.276 268.948,362.045 266.422,384.986 263.138 C 393.765 261.881,397.719 261.074,416.346 256.738 C 439.880 251.258,450.214 249.301,461.680 248.150 C 464.321 247.885,464.359 247.909,462.979 248.989 C 459.902 251.397,456.724 252.752,446.704 255.932 C 444.873 256.512,443.375 257.018,443.375 257.056 C 443.375 257.126,443.993 258.100,444.394 258.662 C 444.753 259.165,447.909 259.096,450.635 258.526 C 456.827 257.232,462.735 254.143,471.206 247.773 C 486.122 236.557,495.207 227.658,499.054 220.497 L 499.736 219.227 499.390 217.049 C 498.806 213.378,498.690 212.088,498.688 209.256 C 498.687 206.642,498.757 205.863,499.544 199.631 C 499.953 196.396,500.148 184.959,499.852 181.546 C 499.215 174.202,497.404 170.370,493.633 168.388 C 492.552 167.820,490.452 167.178,490.270 167.360 C 490.026 167.604,490.833 170.079,492.055 172.840 C 496.573 183.037,497.390 190.574,495.249 202.278 C 494.037 208.903,490.996 219.133,488.798 223.980 C 481.449 240.188,434.444 254.177,364.212 261.059 C 350.316 262.421,343.496 262.849,323.227 263.633 C 317.625 263.849,312.031 264.067,310.796 264.116 C 282.474 265.246,260.856 264.352,251.977 261.684 L 250.586 261.266 251.496 260.487 C 253.256 258.980,255.541 258.502,262.111 258.265 C 267.432 258.073,272.035 257.417,270.929 257.008 C 270.600 256.886,270.693 256.814,271.748 256.375 C 275.794 254.692,281.220 253.963,287.536 254.253 C 301.736 254.906,307.763 254.802,312.025 253.833 C 312.640 253.693,313.097 253.531,313.040 253.474 C 312.929 253.362,292.171 252.528,285.932 252.384 C 279.377 252.233,275.628 252.805,262.271 255.992 C 244.634 260.200,241.879 260.321,219.923 257.848 C 208.873 256.603,203.768 256.068,200.273 255.788 C 169.162 253.298,152.277 258.136,139.883 273.088 C 138.791 274.406,136.388 277.179,134.545 279.251 C 130.702 283.569,128.910 285.759,127.408 287.974 L 126.349 289.535 125.355 287.252 C 124.730 285.819,124.277 284.978,124.138 284.992 C 124.017 285.004,123.195 285.164,122.313 285.347 C 114.521 286.965,109.664 285.776,99.856 279.846 C 95.201 277.032,95.391 277.065,95.912 279.154 C 97.720 286.397,104.272 289.243,120.127 289.672 L 124.198 289.782 120.934 292.669 C 119.140 294.257,116.947 296.165,116.062 296.908 C 115.177 297.651,113.929 298.752,113.289 299.354 C 112.348 300.240,111.731 300.642,110.061 301.459 L 107.995 302.468 108.923 303.381 C 111.735 306.149,110.983 308.231,105.234 313.597 C 104.150 314.608,101.922 316.918,100.282 318.730 C 98.641 320.542,95.484 323.973,93.264 326.355 C 91.045 328.738,88.589 331.425,87.805 332.326 C 86.629 333.681,56.968 362.429,54.334 364.767 L 53.528 365.483 54.363 363.858 C 60.303 352.294,95.018 315.072,107.515 306.867 C 108.824 306.008,108.817 306.145,107.625 304.687 C 106.350 303.126,105.962 303.152,105.470 304.830 C 104.847 306.960,103.244 308.745,99.468 311.517 C 95.928 314.116,95.454 314.517,91.594 318.174 C 74.970 333.924,46.908 363.577,33.375 379.692 C 26.135 388.314,20.533 396.261,20.533 397.910 C 20.533 398.203,21.824 398.867,21.961 398.645 C 22.057 398.490,23.883 399.514,24.940 400.314 L 25.377 400.645 23.871 402.159 C 23.043 402.992,21.180 405.081,19.732 406.801 C 17.099 409.928,14.495 412.665,13.175 413.692 L 12.474 414.237 12.570 413.768 C 12.623 413.509,15.090 398.825,18.051 381.136 C 25.635 335.831,25.105 338.023,33.686 316.570 C 35.027 313.218,36.652 309.103,37.298 307.427 C 38.053 305.468,39.659 301.972,41.793 297.642 L 45.114 290.905 45.465 292.188 C 45.658 292.894,46.714 296.918,47.812 301.130 C 48.909 305.343,49.877 308.767,49.961 308.739 C 51.040 308.383,50.896 304.750,49.593 299.406 C 48.719 295.822,48.375 294.127,48.048 291.792 L 47.948 291.075 48.327 291.432 C 48.536 291.628,48.830 292.179,48.981 292.657 C 49.637 294.740,52.419 296.439,55.175 296.439 C 55.610 296.439,55.680 296.885,54.149 289.879 C 50.910 275.049,50.181 269.889,49.896 259.774 C 49.814 256.869,49.626 253.445,49.478 252.166 C 49.196 249.727,49.235 245.308,49.562 242.701 C 50.045 238.853,49.733 236.721,48.288 233.992 C 46.425 230.476,46.332 229.608,46.349 215.917 C 46.368 200.142,45.994 196.531,43.390 187.360 C 40.322 176.555,40.328 163.932,43.407 150.225 C 43.946 147.822,43.884 147.937,44.398 148.404 C 44.638 148.621,45.087 148.984,45.396 149.209 C 45.845 149.537,46.111 149.987,46.720 151.446 C 48.633 156.028,49.239 158.652,50.774 168.993 C 51.727 175.409,52.540 179.681,53.173 181.585 L 53.572 182.788 53.504 179.098 C 53.387 172.810,52.784 167.975,50.132 152.069 C 47.681 137.366,46.831 131.085,46.280 123.596 C 46.144 121.744,46.001 119.903,45.962 119.506 C 45.603 115.858,45.367 68.009,45.687 63.843 C 46.599 51.982,48.957 41.443,51.159 39.381 C 51.669 38.904,51.693 38.899,53.949 38.812 C 56.510 38.713,58.297 38.125,58.459 37.328 C 58.938 34.967,58.648 33.676,56.865 30.231 C 55.998 28.555,54.978 25.488,55.212 25.262 C 55.296 25.181,71.725 24.030,71.796 24.100 C 71.986 24.290,69.198 26.403,67.815 27.117 C 65.620 28.250,64.668 29.419,63.601 32.286 C 63.226 33.292,63.182 33.283,65.297 32.633 C 82.503 27.339,108.423 25.716,157.363 26.870 C 173.732 27.255,195.622 27.294,202.518 26.949 C 205.907 26.780,210.723 26.711,218.800 26.718 C 229.674 26.728,232.625 26.792,247.915 27.352 C 272.433 28.251,282.132 28.465,292.268 28.334 C 312.217 28.074,324.368 26.912,338.547 23.905 C 345.121 22.511,350.521 21.708,357.154 21.140 C 360.765 20.830,374.524 20.885,381.858 21.238 C 385.357 21.407,392.698 21.579,399.743 21.656 C 412.752 21.800,412.958 21.814,417.585 22.852 C 431.023 25.866,442.045 34.424,450.327 48.274 C 462.631 68.848,464.582 76.175,464.338 100.898 C 464.178 117.092,463.421 126.566,461.411 137.524 C 461.101 139.216,459.950 145.833,458.853 152.230 C 457.014 162.960,456.477 165.598,455.813 167.189 C 455.484 167.977,455.467 167.950,456.292 167.950 C 456.691 167.950,457.426 168.093,457.925 168.269 C 458.424 168.444,458.846 168.570,458.863 168.549 C 460.091 167.043,462.256 156.774,464.215 143.167 C 465.591 133.602,467.918 113.456,467.918 111.102 C 467.918 110.800,467.932 110.801,468.289 111.137 C 468.493 111.328,468.800 111.485,468.971 111.485 C 469.237 111.485,469.394 111.881,470.039 114.172 C 471.141 118.088,471.205 118.570,471.935 128.409 C 472.203 132.026,472.634 137.332,472.892 140.199 C 473.735 149.543,474.092 155.141,474.815 170.356 C 476.244 200.394,477.303 211.572,480.052 225.612 C 480.968 230.291,480.771 230.038,482.298 228.489 C 484.301 226.456,484.925 224.950,484.916 222.175 C 484.911 220.562,484.760 219.583,483.582 213.507 C 481.053 200.462,480.786 193.023,482.104 172.281 C 483.078 156.946,483.077 156.978,483.076 146.375 C 483.076 133.864,482.930 131.676,481.139 117.340 C 475.896 75.357,468.500 40.236,462.312 27.928 C 461.523 26.359,462.086 26.291,457.972 28.445 L 454.524 30.251 453.722 29.093 C 449.557 23.082,442.970 18.818,433.445 15.969 C 428.701 14.549,408.696 7.447,406.872 6.534 C 401.995 4.094,397.273 3.556,388.675 4.460 C 380.960 5.272,377.322 5.297,370.859 4.582 C 353.532 2.665,339.808 2.498,311.277 3.857 C 299.811 4.403,290.883 4.227,282.403 3.287 C 270.714 1.992,258.261 1.195,235.884 0.307 C 230.484 0.093,200.471 -0.016,196.022 0.163 M213.587 2.891 C 221.191 3.195,226.339 3.558,244.225 5.053 C 256.004 6.038,264.403 6.640,270.051 6.905 C 272.169 7.004,274.154 7.138,274.463 7.203 L 275.024 7.322 273.901 7.893 C 263.980 12.943,220.026 16.673,151.428 18.286 C 140.280 18.548,119.523 18.788,118.153 18.670 L 116.880 18.561 117.351 18.175 C 120.226 15.818,123.870 14.868,133.221 14.035 C 142.936 13.170,147.420 12.363,155.037 10.110 C 170.386 5.570,183.130 3.412,198.027 2.833 C 201.069 2.715,210.025 2.748,213.587 2.891 M335.098 12.979 C 341.429 13.807,348.234 14.357,357.057 14.751 C 361.243 14.938,361.121 14.900,359.585 15.539 C 351.590 18.868,320.803 22.275,283.365 23.975 C 267.874 24.679,262.369 24.681,249.599 23.986 C 236.209 23.257,233.514 23.116,230.881 23.005 L 228.285 22.895 229.117 22.199 C 231.365 20.317,238.653 18.856,249.439 18.124 C 252.129 17.941,256.424 17.607,258.983 17.382 C 263.234 17.008,264.713 16.962,276.147 16.842 C 290.985 16.686,289.863 16.761,301.652 15.151 C 311.223 13.844,317.301 13.080,320.661 12.762 C 322.117 12.623,323.596 12.482,323.949 12.448 C 326.024 12.245,331.483 12.505,335.098 12.979 M441.941 25.276 C 449.892 28.043,454.615 34.071,456.740 44.161 L 457.139 46.054 456.760 45.806 C 456.551 45.669,455.915 45.301,455.346 44.988 C 454.204 44.361,453.750 43.803,450.784 39.381 C 448.383 35.799,446.071 33.126,444.050 31.591 C 443.495 31.170,442.895 30.639,442.717 30.413 C 442.145 29.686,439.913 24.703,440.158 24.703 C 440.234 24.703,441.036 24.961,441.941 25.276 M69.168 44.939 C 66.741 45.870,66.509 47.062,67.523 53.417 C 69.034 62.886,69.434 71.089,68.920 82.050 C 68.487 91.308,68.458 92.706,68.643 95.615 C 69.077 102.441,70.475 106.610,73.209 109.229 C 74.043 110.027,74.031 110.122,74.013 102.929 C 73.969 84.816,71.831 50.130,70.453 45.166 C 70.286 44.562,70.192 44.546,69.168 44.939 M121.286 70.541 C 115.138 74.680,106.190 86.825,103.376 94.847 C 102.836 96.389,102.860 96.413,104.242 95.687 C 106.372 94.568,107.977 92.787,109.881 89.429 C 112.434 84.928,113.060 83.902,114.147 82.441 C 116.095 79.824,118.457 77.620,121.417 75.659 C 123.010 74.602,122.879 74.564,123.497 76.272 C 124.804 79.886,125.484 84.111,126.488 94.883 C 128.208 113.323,130.220 118.633,135.476 118.592 C 141.029 118.549,150.303 109.740,160.096 95.206 C 164.261 89.025,164.903 88.165,166.006 87.294 C 166.746 86.708,169.514 85.178,169.832 85.178 C 170.027 85.178,170.686 88.634,171.485 93.840 C 173.057 104.090,174.508 107.498,178.778 110.972 L 180.221 112.147 183.109 112.070 C 190.937 111.861,195.983 109.310,206.734 100.126 C 214.106 93.829,217.399 91.786,221.629 90.882 L 222.132 90.775 222.620 92.122 C 222.888 92.863,223.577 95.123,224.152 97.144 C 226.665 105.978,228.121 108.248,232.089 109.512 C 237.628 111.276,244.909 109.071,262.518 100.298 C 274.275 94.441,275.231 94.442,292.028 100.337 C 304.449 104.696,308.596 105.449,321.623 105.707 C 334.660 105.966,337.597 106.245,345.932 108.016 C 354.380 109.811,357.786 109.981,362.320 108.834 C 368.238 107.336,378.629 100.683,381.302 96.681 C 382.529 94.843,382.588 94.822,376.404 98.459 C 365.471 104.888,361.181 105.537,348.091 102.739 C 338.409 100.669,333.756 100.292,324.912 100.859 C 315.792 101.445,307.037 99.216,286.722 91.137 C 277.069 87.299,275.636 87.525,262.623 94.941 C 244.754 105.124,236.833 106.259,230.164 99.590 C 228.731 98.157,228.456 97.500,227.926 94.250 C 227.250 90.109,224.548 84.278,223.398 84.478 C 218.920 85.257,216.031 87.091,208.124 94.174 C 197.978 103.262,192.312 106.263,183.911 106.998 C 180.536 107.293,180.519 107.289,179.798 105.954 C 178.164 102.929,177.125 99.357,176.298 93.920 C 175.284 87.255,174.605 84.796,172.745 81.037 C 171.418 78.354,171.458 78.382,169.967 79.120 C 166.460 80.856,163.883 83.948,158.750 92.585 C 157.718 94.321,156.275 96.595,155.543 97.638 C 154.811 98.681,153.323 100.834,152.237 102.422 C 146.393 110.965,143.353 112.904,135.683 112.983 C 132.697 113.014,133.075 113.304,132.316 110.408 C 130.630 103.972,129.705 97.723,129.294 89.990 C 128.787 80.468,128.651 79.067,127.998 76.685 C 127.321 74.216,125.778 71.942,123.781 70.472 C 122.617 69.615,122.662 69.614,121.286 70.541 M34.326 102.663 C 34.530 108.970,34.776 114.138,35.531 128.008 C 37.132 157.378,37.279 170.491,36.168 184.953 C 35.931 188.044,35.246 194.474,35.008 195.849 L 34.885 196.558 34.207 195.748 C 30.881 191.776,30.170 189.068,29.751 178.778 C 29.618 175.513,29.369 171.291,29.198 169.394 C 28.862 165.665,28.622 160.984,28.475 155.278 C 28.344 150.203,28.096 145.087,27.824 141.809 C 27.350 136.114,27.514 131.897,28.553 123.115 C 28.814 120.910,29.535 114.175,30.154 108.149 C 31.397 96.059,31.910 93.197,32.808 93.325 C 33.004 93.353,33.321 93.175,33.610 92.873 L 34.087 92.375 34.120 94.832 C 34.138 96.183,34.231 99.707,34.326 102.663 M75.954 119.288 C 73.828 120.376,73.774 120.718,75.210 124.032 L 75.538 124.789 77.136 124.023 C 79.657 122.815,79.712 122.662,78.473 120.271 C 77.564 118.517,77.505 118.494,75.954 119.288 M209.032 147.268 C 201.870 148.080,195.916 150.689,184.713 157.927 C 182.507 159.352,179.584 161.194,178.216 162.019 C 172.947 165.201,169.974 167.176,163.619 171.714 C 158.265 175.537,155.301 177.296,151.748 178.761 L 150.064 179.455 150.109 181.603 C 150.134 182.784,150.188 183.847,150.230 183.965 C 150.397 184.439,154.103 182.139,162.103 176.595 C 172.023 169.721,174.227 168.207,177.414 166.081 C 193.695 155.219,203.435 150.411,209.198 150.391 L 210.905 150.385 212.014 151.143 C 218.307 155.441,220.540 160.650,221.041 172.201 C 221.465 181.989,222.456 185.767,225.648 189.755 C 228.220 192.970,229.237 193.450,232.815 193.136 C 238.916 192.601,243.183 190.784,255.019 183.681 C 270.681 174.282,274.211 173.714,283.606 179.082 C 291.760 183.742,298.385 184.864,309.352 183.444 C 326.379 181.239,333.519 182.398,344.019 189.069 C 349.948 192.836,352.664 194.013,357.313 194.832 C 367.889 196.695,389.425 192.587,391.986 188.219 C 392.425 187.469,393.389 184.962,393.279 184.853 C 393.249 184.822,390.811 185.342,387.862 186.007 C 375.748 188.741,373.578 189.106,368.689 189.238 C 359.299 189.490,352.002 187.102,337.905 179.164 C 330.335 174.901,331.337 175.080,322.345 176.373 C 299.861 179.605,292.996 178.977,283.766 172.842 C 276.042 167.708,273.068 168.297,257.867 177.972 C 245.515 185.834,238.931 187.927,230.009 186.828 L 228.946 186.697 228.138 184.983 C 226.283 181.052,225.448 177.893,224.006 169.364 C 222.815 162.316,221.868 158.638,220.232 154.708 C 218.990 151.724,216.715 147.514,216.247 147.333 C 215.796 147.159,210.421 147.111,209.032 147.268 M81.919 235.140 C 79.620 238.263,77.660 244.182,73.309 261.149 C 68.544 279.730,65.950 287.936,63.133 293.337 C 62.317 294.901,60.811 297.311,60.712 297.209 C 60.687 297.183,60.946 295.681,61.289 293.872 C 63.964 279.765,66.469 240.798,64.956 236.820 L 64.818 236.456 63.889 236.911 C 63.379 237.161,62.696 237.451,62.372 237.556 C 61.295 237.902,61.284 238.001,61.763 243.343 C 62.657 253.311,62.101 260.583,58.709 283.285 C 55.167 306.991,53.828 319.358,54.447 322.654 L 54.562 323.272 55.293 322.568 C 59.822 318.205,62.982 310.170,67.228 292.223 C 70.969 276.408,72.507 271.302,75.133 265.975 C 75.976 264.266,77.516 262.096,77.733 262.312 C 77.848 262.427,76.768 269.161,75.554 275.906 C 73.537 287.110,72.883 291.657,72.490 297.202 C 72.266 300.364,72.221 300.202,73.248 299.953 C 77.337 298.961,81.217 295.169,83.983 289.461 C 85.084 287.187,86.064 284.568,85.813 284.568 C 85.418 284.568,82.993 287.156,82.062 288.571 C 80.640 290.733,79.988 291.310,77.672 292.455 C 76.587 292.991,75.653 293.384,75.596 293.327 C 75.279 293.009,76.465 285.882,79.082 272.377 C 83.681 248.653,84.726 239.400,83.291 235.129 C 82.916 234.014,82.746 234.016,81.919 235.140 M205.486 258.020 C 207.549 258.393,209.327 258.967,210.831 259.745 C 212.344 260.528,213.973 261.749,213.650 261.858 C 213.357 261.957,208.955 262.812,206.609 263.225 C 191.187 265.939,178.955 265.967,168.400 263.312 C 167.144 262.996,166.099 262.719,166.076 262.697 C 165.851 262.471,175.963 259.185,177.494 258.986 C 186.370 257.835,201.561 257.310,205.486 258.020 M61.503 363.478 C 62.210 365.231,61.699 366.175,57.591 370.711 C 54.706 373.896,52.133 377.223,52.133 377.769 C 52.133 377.893,29.853 399.172,29.325 399.552 C 28.973 399.806,28.945 399.604,29.274 399.174 C 29.405 399.002,30.929 396.734,32.659 394.133 C 41.735 380.497,45.680 375.880,54.219 368.901 C 57.536 366.190,58.898 364.882,60.065 363.289 C 60.957 362.071,60.935 362.068,61.503 363.478 " stroke="none" fill="#000000" fill-rule="evenodd"></path></g></svg>